<svg width="396" height="110" viewBox="0 0 396 110" fill="none" xmlns="http://www.w3.org/2000/svg">
<path d="M4.384 99.4459C4.132 99.4459 3.892 99.4099 3.664 99.3379C3.448 99.2779 3.268 99.1699 3.124 99.0139C2.98 98.8459 2.908 98.6239 2.908 98.3479C2.908 98.0599 2.992 97.8259 3.16 97.6459C3.328 97.4539 3.55 97.3519 3.826 97.3399C4.102 97.3279 4.306 97.4059 4.438 97.5739C4.582 97.7419 4.654 97.9219 4.654 98.1139C4.654 98.2219 4.642 98.3119 4.618 98.3839C4.594 98.4439 4.552 98.5039 4.492 98.5639C4.552 98.5759 4.606 98.5939 4.654 98.6179C4.702 98.6299 4.75 98.6359 4.798 98.6359C5.062 98.6359 5.344 98.3659 5.644 97.8259C5.728 97.6939 5.854 97.4359 6.022 97.0519C6.19 96.6559 6.388 96.1819 6.616 95.6299C6.844 95.0779 7.084 94.4959 7.336 93.8839C7.588 93.2599 7.828 92.6479 8.056 92.0479C8.296 91.4359 8.512 90.8839 8.704 90.3919C8.896 89.8879 9.04 89.4919 9.136 89.2039C9.256 88.8439 9.388 88.4719 9.532 88.0879C9.688 87.7039 9.826 87.4339 9.946 87.2779L8.524 87.3319V86.5399H12.214V87.1339C11.77 87.1579 11.422 87.2599 11.17 87.4399C10.918 87.6079 10.708 87.8599 10.54 88.1959C10.384 88.5199 10.204 88.9279 10 89.4199L7.084 96.4579C6.808 97.1179 6.544 97.6699 6.292 98.1139C6.04 98.5579 5.764 98.8939 5.464 99.1219C5.164 99.3379 4.804 99.4459 4.384 99.4459ZM6.382 96.4939L2.764 89.3119C2.524 88.8319 2.35 88.4359 2.242 88.1239C2.146 87.7999 2.074 87.5239 2.026 87.2959L0.91 87.3319V86.5399H5.248V87.1339C4.744 87.1339 4.39 87.2179 4.186 87.3859C3.994 87.5539 3.916 87.7879 3.952 88.0879C4 88.3759 4.12 88.7119 4.312 89.0959L6.166 92.8219C6.334 93.1579 6.502 93.4879 6.67 93.8119C6.838 94.1359 7 94.4659 7.156 94.8019L6.382 96.4939ZM12.7783 99.1399V98.5999C13.1503 98.5999 13.4083 98.5099 13.5523 98.3299C13.6963 98.1379 13.7803 97.8799 13.8043 97.5559C13.8403 97.2199 13.8583 96.8359 13.8583 96.4039V92.0479C13.8583 91.8079 13.8583 91.5979 13.8583 91.4179C13.8703 91.2259 13.8943 91.0279 13.9303 90.8239L12.7963 90.8779V90.1399H22.2643V90.6799C21.9043 90.6799 21.6463 90.7759 21.4903 90.9679C21.3463 91.1479 21.2623 91.4059 21.2383 91.7419C21.2143 92.0659 21.2023 92.4439 21.2023 92.8759L21.1663 97.2319C21.1663 97.4719 21.1603 97.6879 21.1483 97.8799C21.1483 98.0599 21.1303 98.2519 21.0943 98.4559L22.2283 98.4019V99.1399H18.5383V98.5999C18.9103 98.5999 19.1683 98.5099 19.3123 98.3299C19.4563 98.1379 19.5403 97.8799 19.5643 97.5559C19.6003 97.2199 19.6183 96.8359 19.6183 96.4039L19.6363 92.0479C19.6363 91.8079 19.6363 91.5979 19.6363 91.4179C19.6483 91.2259 19.6723 91.0279 19.7083 90.8239L16.5043 90.8599C16.1323 90.8599 15.8743 90.9379 15.7303 91.0939C15.5863 91.2499 15.5023 91.4779 15.4783 91.7779C15.4543 92.0779 15.4363 92.4439 15.4243 92.8759L15.4063 97.2319C15.4063 97.4719 15.4003 97.6879 15.3883 97.8799C15.3883 98.0599 15.3703 98.2519 15.3343 98.4559L16.4683 98.4019V99.1399H12.7783ZM23.6905 103.73V103.19C24.0625 103.19 24.3205 103.094 24.4645 102.902C24.6085 102.722 24.6925 102.464 24.7165 102.128C24.7405 101.804 24.7525 101.426 24.7525 100.994L24.7885 92.2999C24.7885 92.1079 24.7885 91.9159 24.7885 91.7239C24.8005 91.5319 24.8245 91.3339 24.8605 91.1299C24.6445 91.1419 24.4285 91.1539 24.2125 91.1659C24.0085 91.1779 23.7985 91.1899 23.5825 91.2019V90.4459C24.1105 90.4459 24.5065 90.4219 24.7705 90.3739C25.0465 90.3259 25.2445 90.2659 25.3645 90.1939C25.4965 90.1219 25.6045 90.0439 25.6885 89.9599H26.2285C26.2405 90.0799 26.2525 90.2239 26.2645 90.3919C26.2765 90.5479 26.2885 90.7279 26.3005 90.9319C26.6605 90.6079 27.0865 90.3499 27.5785 90.1579C28.0825 89.9539 28.5865 89.8519 29.0905 89.8519C29.7865 89.8519 30.4345 90.0319 31.0345 90.3919C31.6345 90.7519 32.1205 91.2679 32.4925 91.9399C32.8645 92.5999 33.0505 93.3919 33.0505 94.3159C33.0505 95.3359 32.8345 96.2299 32.4025 96.9979C31.9825 97.7659 31.4245 98.3659 30.7285 98.7979C30.0325 99.2179 29.2765 99.4279 28.4605 99.4279C28.0405 99.4279 27.6505 99.3739 27.2905 99.2659C26.9425 99.1699 26.6125 99.0259 26.3005 98.8339V101.822C26.3005 102.062 26.2945 102.272 26.2825 102.452C26.2825 102.644 26.2645 102.842 26.2285 103.046C26.4205 103.034 26.6065 103.022 26.7865 103.01C26.9785 103.01 27.1705 103.004 27.3625 102.992V103.73H23.6905ZM28.4245 98.7079C29.0005 98.7079 29.4925 98.5339 29.9005 98.1859C30.3205 97.8259 30.6385 97.3399 30.8545 96.7279C31.0825 96.1039 31.1965 95.3959 31.1965 94.6039C31.1965 93.9559 31.1005 93.3379 30.9085 92.7499C30.7285 92.1499 30.4345 91.6639 30.0265 91.2919C29.6305 90.9199 29.1025 90.7339 28.4425 90.7339C28.0345 90.7339 27.6385 90.8359 27.2545 91.0399C26.8825 91.2319 26.5705 91.4659 26.3185 91.7419C26.3185 91.7899 26.3185 91.8619 26.3185 91.9579C26.3305 92.0419 26.3365 92.1979 26.3365 92.4259C26.3365 92.6419 26.3365 92.9719 26.3365 93.4159C26.3365 93.8479 26.3305 94.4359 26.3185 95.1799C26.3185 95.9239 26.3185 96.8659 26.3185 98.0059C26.6185 98.2339 26.9425 98.4079 27.2905 98.5279C27.6505 98.6479 28.0285 98.7079 28.4245 98.7079ZM40.0648 99.1399C40.0288 98.9359 40.0048 98.7559 39.9928 98.5999C39.9808 98.4439 39.9628 98.2819 39.9388 98.1139C39.5308 98.5219 39.0868 98.8459 38.6068 99.0859C38.1388 99.3139 37.6408 99.4279 37.1128 99.4279C36.2008 99.4279 35.5228 99.2239 35.0788 98.8159C34.6348 98.3959 34.4128 97.8859 34.4128 97.2859C34.4128 96.7339 34.5808 96.2599 34.9168 95.8639C35.2648 95.4559 35.7088 95.1259 36.2488 94.8739C36.8008 94.6099 37.3948 94.4179 38.0308 94.2979C38.6788 94.1659 39.3028 94.1059 39.9028 94.1179V93.0019C39.9028 92.5819 39.8668 92.1859 39.7948 91.8139C39.7228 91.4419 39.5668 91.1359 39.3268 90.8959C39.0868 90.6559 38.7028 90.5299 38.1748 90.5179C37.8268 90.5059 37.4668 90.5719 37.0948 90.7159C36.7348 90.8599 36.4708 91.1059 36.3028 91.4539C36.3988 91.5499 36.4588 91.6639 36.4828 91.7959C36.5188 91.9159 36.5368 92.0299 36.5368 92.1379C36.5368 92.2819 36.4768 92.4499 36.3568 92.6419C36.2368 92.8219 36.0268 92.9059 35.7268 92.8939C35.4748 92.8939 35.2828 92.8099 35.1508 92.6419C35.0188 92.4619 34.9528 92.2519 34.9528 92.0119C34.9528 91.6039 35.1028 91.2379 35.4028 90.9139C35.7148 90.5899 36.1408 90.3319 36.6808 90.1399C37.2208 89.9479 37.8328 89.8519 38.5168 89.8519C39.5248 89.8519 40.2688 90.1219 40.7488 90.6619C41.2288 91.1899 41.4628 92.0299 41.4508 93.1819C41.4508 93.6259 41.4508 94.0759 41.4508 94.5319C41.4508 94.9759 41.4448 95.4259 41.4328 95.8819C41.4328 96.3259 41.4328 96.7759 41.4328 97.2319C41.4328 97.4239 41.4268 97.6159 41.4148 97.8079C41.4028 97.9999 41.3848 98.2159 41.3608 98.4559C41.5768 98.4439 41.7868 98.4319 41.9908 98.4199C42.2068 98.4079 42.4228 98.3959 42.6388 98.3839V99.1399H40.0648ZM39.9028 94.7299C39.4948 94.7419 39.0628 94.7959 38.6068 94.8919C38.1628 94.9759 37.7488 95.1079 37.3648 95.2879C36.9928 95.4679 36.6868 95.7079 36.4468 96.0079C36.2188 96.2959 36.1108 96.6499 36.1228 97.0699C36.1468 97.5139 36.2908 97.8499 36.5548 98.0779C36.8308 98.2939 37.1548 98.4019 37.5268 98.4019C38.0188 98.4019 38.4448 98.3119 38.8048 98.1319C39.1768 97.9399 39.5428 97.6759 39.9028 97.3399C39.8908 97.2079 39.8848 97.0639 39.8848 96.9079C39.8848 96.7519 39.8848 96.5899 39.8848 96.4219C39.8848 96.3619 39.8848 96.1699 39.8848 95.8459C39.8968 95.5219 39.9028 95.1499 39.9028 94.7299ZM43.874 99.1399V98.5999C44.318 98.5879 44.606 98.4499 44.738 98.1859C44.882 97.9099 44.954 97.5379 44.954 97.0699V91.8679C44.954 91.6519 44.96 91.4599 44.972 91.2919C44.984 91.1239 45.002 90.9679 45.026 90.8239C44.834 90.8359 44.642 90.8479 44.45 90.8599C44.27 90.8599 44.084 90.8659 43.892 90.8779V90.1399C44.216 90.1399 44.63 90.1399 45.134 90.1399C45.638 90.1279 46.19 90.1219 46.79 90.1219C47.402 90.1219 48.008 90.1219 48.608 90.1219C49.448 90.1219 50.132 90.2959 50.66 90.6439C51.2 90.9799 51.464 91.4959 51.452 92.1919C51.44 92.6719 51.272 93.1219 50.948 93.5419C50.636 93.9499 50.138 94.2379 49.454 94.4059C50.27 94.4419 50.888 94.6639 51.308 95.0719C51.728 95.4679 51.938 95.9719 51.938 96.5839C51.938 97.1239 51.794 97.5859 51.506 97.9699C51.218 98.3539 50.84 98.6479 50.372 98.8519C49.904 99.0439 49.4 99.1399 48.86 99.1399H43.874ZM46.466 98.4019C46.598 98.4139 46.772 98.4199 46.988 98.4199C47.216 98.4199 47.426 98.4199 47.618 98.4199C47.822 98.4199 47.948 98.4199 47.996 98.4199C48.668 98.4199 49.202 98.2819 49.598 98.0059C50.006 97.7179 50.21 97.2619 50.21 96.6379C50.21 96.0019 49.988 95.5519 49.544 95.2879C49.1 95.0119 48.584 94.8739 47.996 94.8739C47.744 94.8739 47.48 94.8799 47.204 94.8919C46.94 94.8919 46.706 94.8979 46.502 94.9099V97.3939C46.502 97.6219 46.496 97.8199 46.484 97.9879C46.484 98.1559 46.478 98.2939 46.466 98.4019ZM46.502 94.2259L47.852 94.2079C48.344 94.1959 48.734 94.0939 49.022 93.9019C49.31 93.6979 49.514 93.4519 49.634 93.1639C49.754 92.8639 49.808 92.5699 49.796 92.2819C49.796 91.8619 49.706 91.5439 49.526 91.3279C49.346 91.1119 49.112 90.9679 48.824 90.8959C48.548 90.8119 48.248 90.7699 47.924 90.7699C47.492 90.7699 47.144 90.8479 46.88 91.0039C46.628 91.1599 46.502 91.4959 46.502 92.0119V94.2259ZM53.9448 99.3379C53.5128 99.3379 53.1768 99.2539 52.9368 99.0859C52.7088 98.9059 52.5948 98.6719 52.5948 98.3839C52.5948 98.1199 52.6608 97.9039 52.7928 97.7359C52.9248 97.5679 53.1228 97.4779 53.3868 97.4659C53.6748 97.4659 53.8788 97.5379 53.9988 97.6819C54.1308 97.8259 54.1968 97.9699 54.1968 98.1139C54.1968 98.1499 54.1908 98.1979 54.1788 98.2579C54.1788 98.3059 54.1728 98.3479 54.1608 98.3839C54.2328 98.4079 54.2868 98.4199 54.3228 98.4199C54.5628 98.4199 54.8148 98.1799 55.0788 97.6999C55.3428 97.2199 55.5828 96.4279 55.7988 95.3239C56.0268 94.2079 56.1828 92.7139 56.2668 90.8419L54.5748 90.9139V90.1399H62.3328V90.6799C61.9728 90.6799 61.7148 90.7759 61.5587 90.9679C61.4148 91.1479 61.3308 91.4059 61.3068 91.7419C61.2828 92.0659 61.2708 92.4439 61.2708 92.8759V97.2319C61.2588 97.4719 61.2468 97.6879 61.2348 97.8799C61.2228 98.0599 61.1988 98.2519 61.1628 98.4559L62.2968 98.4019V99.1399H58.6248V98.5999C58.9968 98.5999 59.2548 98.5099 59.3988 98.3299C59.5428 98.1379 59.6268 97.8799 59.6508 97.5559C59.6868 97.2199 59.7108 96.8359 59.7228 96.4039V92.0479C59.7228 91.8079 59.7228 91.5979 59.7228 91.4179C59.7348 91.2259 59.7588 91.0279 59.7948 90.8239H58.2108C57.8028 90.8239 57.5208 90.9559 57.3648 91.2199C57.2208 91.4719 57.1488 91.8139 57.1488 92.2459C57.1008 93.0979 57.0108 93.9439 56.8788 94.7839C56.7588 95.6239 56.5788 96.3859 56.3388 97.0699C56.0988 97.7539 55.7808 98.3059 55.3848 98.7259C55.0008 99.1339 54.5208 99.3379 53.9448 99.3379ZM63.4271 99.1399V98.5999C63.7031 98.5999 63.9371 98.5279 64.1291 98.3839C64.3331 98.2279 64.5431 98.0059 64.7591 97.7179C64.9871 97.4299 65.2691 97.0759 65.6051 96.6559L66.2531 95.8459C66.3851 95.6779 66.5171 95.5579 66.6491 95.4859C66.7811 95.4019 66.9251 95.3359 67.0811 95.2879C66.1691 95.1319 65.5271 94.8259 65.1551 94.3699C64.7951 93.9139 64.6151 93.3919 64.6151 92.8039C64.6151 92.2279 64.7531 91.7419 65.0291 91.3459C65.3051 90.9499 65.6651 90.6499 66.1091 90.4459C66.5651 90.2419 67.0511 90.1399 67.5671 90.1399H72.1211V90.6799C71.8331 90.6799 71.6111 90.7459 71.4551 90.8779C71.2991 90.9979 71.1911 91.1719 71.1311 91.3999C71.0711 91.6159 71.0411 91.8859 71.0411 92.2099V97.2319C71.0411 97.4719 71.0351 97.6879 71.0231 97.8799C71.0231 98.0599 71.0051 98.2519 70.9691 98.4559L72.1031 98.4019V99.1399H68.4311V98.5999C68.8991 98.5999 69.1931 98.4439 69.3131 98.1319C69.4331 97.8079 69.4931 97.4299 69.4931 96.9979V95.5399L68.2511 95.5579C68.0951 95.7019 67.9271 95.8939 67.7471 96.1339C67.5671 96.3739 67.3931 96.6139 67.2251 96.8539C67.0691 97.0939 66.9371 97.2919 66.8291 97.4479C66.5291 97.8679 66.2051 98.2579 65.8571 98.6179C65.5091 98.9659 65.1731 99.1399 64.8491 99.1399H63.4271ZM68.2151 94.8919C68.4791 94.8919 68.7071 94.8919 68.8991 94.8919C69.1031 94.8799 69.3011 94.8679 69.4931 94.8559V91.8859C69.4931 91.6459 69.4931 91.4479 69.4931 91.2919C69.5051 91.1239 69.5171 90.9859 69.5291 90.8779C69.3371 90.8539 69.0911 90.8479 68.7911 90.8599C68.4911 90.8599 68.2991 90.8599 68.2151 90.8599C67.6631 90.8599 67.1891 91.0039 66.7931 91.2919C66.4091 91.5799 66.2171 92.0719 66.2171 92.7679C66.2171 93.3559 66.3911 93.8599 66.7391 94.2799C67.0991 94.6879 67.5911 94.8919 68.2151 94.8919ZM77.4121 90.6799C77.0401 90.6799 76.7821 90.7759 76.6381 90.9679C76.4941 91.1479 76.4101 91.4059 76.3861 91.7419C76.3621 92.0659 76.3441 92.4439 76.3321 92.8759L76.3141 97.2319C76.3141 97.4719 76.3081 97.6879 76.2961 97.8799C76.2961 98.0599 76.2781 98.2519 76.2421 98.4559C76.4341 98.4439 76.6201 98.4379 76.8001 98.4379C76.9921 98.4259 77.1841 98.4139 77.3761 98.4019V99.1399H73.7041V98.5999C74.0761 98.5999 74.3341 98.5099 74.4781 98.3299C74.6221 98.1379 74.7061 97.8799 74.7301 97.5559C74.7661 97.2199 74.7841 96.8359 74.7841 96.4039V92.0479C74.7841 91.8079 74.7841 91.5979 74.7841 91.4179C74.7961 91.2259 74.8201 91.0279 74.8561 90.8239C74.6641 90.8359 74.4721 90.8479 74.2801 90.8599C74.1001 90.8599 73.9141 90.8659 73.7221 90.8779V90.1399H77.4121V90.6799ZM80.9401 91.0039L81.5161 91.4359L75.9901 98.3659L75.3781 97.8619L80.9401 91.0039ZM83.4061 90.6799C83.0461 90.6799 82.7881 90.7759 82.6321 90.9679C82.4881 91.1479 82.4041 91.4059 82.3801 91.7419C82.3561 92.0659 82.3441 92.4439 82.3441 92.8759L82.3081 97.2319C82.3081 97.4719 82.3021 97.6879 82.2901 97.8799C82.2901 98.0599 82.2781 98.2519 82.2541 98.4559C82.4461 98.4439 82.6321 98.4379 82.8121 98.4379C83.0041 98.4259 83.1961 98.4139 83.3881 98.4019V99.1399H79.6981V98.5999C80.0701 98.5999 80.3281 98.5099 80.4721 98.3299C80.6161 98.1379 80.7001 97.8799 80.7241 97.5559C80.7601 97.2199 80.7781 96.8359 80.7781 96.4039L80.7961 92.0479C80.7961 91.8079 80.7961 91.5979 80.7961 91.4179C80.8081 91.2259 80.8321 91.0279 80.8681 90.8239C80.6761 90.8359 80.4841 90.8479 80.2921 90.8599C80.1121 90.8599 79.9261 90.8659 79.7341 90.8779V90.1399H83.4061V90.6799ZM78.5641 88.7539C77.8681 88.7539 77.2741 88.6159 76.7821 88.3399C76.2901 88.0519 76.0441 87.6679 76.0441 87.1879C76.0441 86.9719 76.1041 86.7859 76.2241 86.6299C76.3441 86.4619 76.5181 86.3719 76.7461 86.3599C76.9501 86.3479 77.1061 86.3899 77.2141 86.4859C77.3221 86.5699 77.3941 86.6719 77.4301 86.7919C77.4781 86.8999 77.5021 87.0019 77.5021 87.0979C77.5021 87.1939 77.4901 87.3019 77.4661 87.4219C77.4421 87.5419 77.4001 87.6499 77.3401 87.7459C77.4001 87.8659 77.5561 87.9559 77.8081 88.0159C78.0721 88.0639 78.3241 88.0879 78.5641 88.0879C78.8041 88.0879 79.0501 88.0639 79.3021 88.0159C79.5541 87.9559 79.7161 87.8659 79.7881 87.7459C79.7281 87.6499 79.6861 87.5419 79.6621 87.4219C79.6381 87.3019 79.6261 87.1939 79.6261 87.0979C79.6261 87.0019 79.6441 86.8999 79.6801 86.7919C79.7281 86.6719 79.8061 86.5699 79.9141 86.4859C80.0221 86.3899 80.1781 86.3479 80.3821 86.3599C80.5981 86.3719 80.7661 86.4619 80.8861 86.6299C81.0181 86.7859 81.0841 86.9719 81.0841 87.1879C81.0841 87.6679 80.8381 88.0519 80.3461 88.3399C79.8541 88.6159 79.2601 88.7539 78.5641 88.7539ZM89.5018 99.1399V98.5999C89.8858 98.6119 90.1438 98.5099 90.2758 98.2939C90.4078 98.0659 90.4978 97.7659 90.5458 97.3939L91.2118 91.8139C91.2358 91.6459 91.2598 91.4779 91.2838 91.3099C91.3078 91.1419 91.3258 90.9799 91.3378 90.8239L90.2398 90.8779V90.1399H92.6338L95.0098 95.7019C95.1058 95.9299 95.2018 96.1579 95.2978 96.3859C95.3938 96.6139 95.4898 96.8419 95.5858 97.0699C95.6818 96.8539 95.7718 96.6439 95.8558 96.4399C95.9398 96.2239 96.0238 96.0079 96.1078 95.7919L98.4298 90.1399H100.554V90.6799C100.218 90.6799 99.9658 90.7759 99.7978 90.9679C99.6298 91.1599 99.5818 91.4959 99.6538 91.9759L100.482 97.4479C100.518 97.7959 100.518 98.1259 100.482 98.4379L101.652 98.4019V99.1399H98.0158V98.5999C98.3878 98.6119 98.6578 98.4979 98.8258 98.2579C99.0058 98.0059 99.0538 97.6099 98.9698 97.0699L98.2678 92.4439L95.5138 99.1399H94.7938L92.6518 93.9199C92.5438 93.6439 92.4298 93.3679 92.3098 93.0919C92.2018 92.8159 92.0938 92.5399 91.9858 92.2639C91.9498 92.5399 91.9138 92.8159 91.8778 93.0919C91.8538 93.3679 91.8238 93.6439 91.7878 93.9199L91.3558 97.3939C91.3438 97.5499 91.3138 97.7299 91.2658 97.9339C91.2298 98.1259 91.1878 98.2939 91.1398 98.4379L92.2738 98.4019V99.1399H89.5018ZM107.363 99.4279C106.535 99.4279 105.785 99.2359 105.113 98.8519C104.453 98.4559 103.931 97.9039 103.547 97.1959C103.163 96.4759 102.971 95.6299 102.971 94.6579C102.971 93.8179 103.157 93.0319 103.529 92.2999C103.913 91.5679 104.447 90.9799 105.131 90.5359C105.815 90.0799 106.607 89.8519 107.507 89.8519C108.011 89.8519 108.479 89.9359 108.911 90.1039C109.355 90.2599 109.745 90.5059 110.081 90.8419C110.417 91.1659 110.681 91.5799 110.873 92.0839C111.065 92.5759 111.161 93.1579 111.161 93.8299L104.825 93.9379C104.825 94.8499 104.921 95.6539 105.113 96.3499C105.317 97.0339 105.641 97.5679 106.085 97.9519C106.529 98.3239 107.099 98.5099 107.795 98.5099C108.167 98.5099 108.545 98.4439 108.929 98.3119C109.325 98.1799 109.691 97.9999 110.027 97.7719C110.363 97.5439 110.633 97.2919 110.837 97.0159L111.269 97.3759C110.945 97.8799 110.555 98.2819 110.099 98.5819C109.643 98.8819 109.175 99.0979 108.695 99.2299C108.215 99.3619 107.771 99.4279 107.363 99.4279ZM104.879 93.1819H109.469C109.469 92.7499 109.403 92.3359 109.271 91.9399C109.151 91.5319 108.947 91.2019 108.659 90.9499C108.371 90.6859 107.993 90.5539 107.525 90.5539C106.829 90.5539 106.247 90.7639 105.779 91.1839C105.323 91.5919 105.023 92.2579 104.879 93.1819ZM117.533 99.1399V98.5999C117.905 98.5999 118.163 98.5099 118.307 98.3299C118.451 98.1379 118.535 97.8799 118.559 97.5559C118.583 97.2199 118.595 96.8359 118.595 96.4039V95.3779C118.247 95.4619 117.887 95.5279 117.515 95.5759C117.143 95.6119 116.825 95.6299 116.561 95.6299C115.433 95.6299 114.611 95.3419 114.095 94.7659C113.591 94.1779 113.339 93.3259 113.339 92.2099C113.339 91.9699 113.345 91.7239 113.357 91.4719C113.369 91.2079 113.387 90.9919 113.411 90.8239L112.277 90.8779V90.1399H115.949V90.6799C115.541 90.6799 115.265 90.8239 115.121 91.1119C114.977 91.3879 114.899 91.9099 114.887 92.6779C114.887 93.2779 115.049 93.7699 115.373 94.1539C115.709 94.5259 116.213 94.7119 116.885 94.7119C117.125 94.7119 117.395 94.6939 117.695 94.6579C118.007 94.6219 118.307 94.5679 118.595 94.4959L118.613 92.0479C118.613 91.8079 118.613 91.5979 118.613 91.4179C118.625 91.2259 118.649 91.0279 118.685 90.8239L117.551 90.8779V90.1399H121.223V90.6799C120.863 90.6799 120.611 90.7759 120.467 90.9679C120.323 91.1479 120.239 91.4059 120.215 91.7419C120.191 92.0659 120.173 92.4439 120.161 92.8759L120.143 97.2319C120.143 97.4719 120.137 97.6879 120.125 97.8799C120.125 98.0599 120.107 98.2519 120.071 98.4559L121.205 98.4019V99.1399H117.533ZM124.6 99.1399V98.5999C124.972 98.5999 125.23 98.5099 125.374 98.3299C125.518 98.1379 125.602 97.8799 125.626 97.5559C125.662 97.2199 125.68 96.8359 125.68 96.4039V92.0479C125.68 91.8079 125.68 91.6099 125.68 91.4539C125.692 91.2859 125.716 91.0999 125.752 90.8959H124.474C123.994 90.8959 123.64 91.0339 123.412 91.3099C123.196 91.5859 123.088 92.1019 123.088 92.8579H122.404L122.476 90.1399H130.432L130.522 92.8579H129.838C129.826 92.1019 129.712 91.5859 129.496 91.3099C129.292 91.0339 128.908 90.8959 128.344 90.8959H127.228V97.2319C127.228 97.4719 127.222 97.6879 127.21 97.8799C127.21 98.0599 127.192 98.2519 127.156 98.4559L128.29 98.4019V99.1399H124.6ZM136.176 99.4279C135.336 99.4279 134.574 99.2359 133.89 98.8519C133.206 98.4559 132.66 97.9159 132.252 97.2319C131.856 96.5359 131.658 95.7439 131.658 94.8559C131.658 93.9079 131.856 93.0559 132.252 92.2999C132.648 91.5439 133.188 90.9499 133.872 90.5179C134.556 90.0739 135.324 89.8519 136.176 89.8519C137.016 89.8519 137.778 90.0559 138.462 90.4639C139.146 90.8599 139.692 91.3999 140.1 92.0839C140.508 92.7679 140.712 93.5479 140.712 94.4239C140.712 95.3479 140.508 96.1939 140.1 96.9619C139.704 97.7179 139.164 98.3179 138.48 98.7619C137.796 99.2059 137.028 99.4279 136.176 99.4279ZM136.32 98.7079C136.956 98.7079 137.46 98.5279 137.832 98.1679C138.204 97.8079 138.468 97.3399 138.624 96.7639C138.792 96.1879 138.876 95.5819 138.876 94.9459C138.876 94.4059 138.822 93.8779 138.714 93.3619C138.618 92.8339 138.462 92.3599 138.246 91.9399C138.03 91.5079 137.748 91.1659 137.4 90.9139C137.064 90.6619 136.656 90.5359 136.176 90.5359C135.552 90.5359 135.042 90.7159 134.646 91.0759C134.25 91.4359 133.956 91.9039 133.764 92.4799C133.584 93.0559 133.494 93.6739 133.494 94.3339C133.494 95.0779 133.596 95.7859 133.8 96.4579C134.004 97.1179 134.316 97.6579 134.736 98.0779C135.156 98.4979 135.684 98.7079 136.32 98.7079ZM145.949 90.6799C145.577 90.6799 145.319 90.7759 145.175 90.9679C145.031 91.1479 144.947 91.4059 144.923 91.7419C144.899 92.0659 144.881 92.4439 144.869 92.8759L144.851 97.2319C144.851 97.4719 144.845 97.6879 144.833 97.8799C144.833 98.0599 144.815 98.2519 144.779 98.4559C144.971 98.4439 145.157 98.4379 145.337 98.4379C145.529 98.4259 145.721 98.4139 145.913 98.4019V99.1399H142.241V98.5999C142.613 98.5999 142.871 98.5099 143.015 98.3299C143.159 98.1379 143.243 97.8799 143.267 97.5559C143.303 97.2199 143.321 96.8359 143.321 96.4039V92.0479C143.321 91.8079 143.321 91.5979 143.321 91.4179C143.333 91.2259 143.357 91.0279 143.393 90.8239C143.201 90.8359 143.009 90.8479 142.817 90.8599C142.637 90.8599 142.451 90.8659 142.259 90.8779V90.1399H145.949V90.6799ZM149.477 91.0039L150.053 91.4359L144.527 98.3659L143.915 97.8619L149.477 91.0039ZM151.943 90.6799C151.583 90.6799 151.325 90.7759 151.169 90.9679C151.025 91.1479 150.941 91.4059 150.917 91.7419C150.893 92.0659 150.881 92.4439 150.881 92.8759L150.845 97.2319C150.845 97.4719 150.839 97.6879 150.827 97.8799C150.827 98.0599 150.815 98.2519 150.791 98.4559C150.983 98.4439 151.169 98.4379 151.349 98.4379C151.541 98.4259 151.733 98.4139 151.925 98.4019V99.1399H148.235V98.5999C148.607 98.5999 148.865 98.5099 149.009 98.3299C149.153 98.1379 149.237 97.8799 149.261 97.5559C149.297 97.2199 149.315 96.8359 149.315 96.4039L149.333 92.0479C149.333 91.8079 149.333 91.5979 149.333 91.4179C149.345 91.2259 149.369 91.0279 149.405 90.8239C149.213 90.8359 149.021 90.8479 148.829 90.8599C148.649 90.8599 148.463 90.8659 148.271 90.8779V90.1399H151.943V90.6799ZM147.101 88.7539C146.405 88.7539 145.811 88.6159 145.319 88.3399C144.827 88.0519 144.581 87.6679 144.581 87.1879C144.581 86.9719 144.641 86.7859 144.761 86.6299C144.881 86.4619 145.055 86.3719 145.283 86.3599C145.487 86.3479 145.643 86.3899 145.751 86.4859C145.859 86.5699 145.931 86.6719 145.967 86.7919C146.015 86.8999 146.039 87.0019 146.039 87.0979C146.039 87.1939 146.027 87.3019 146.003 87.4219C145.979 87.5419 145.937 87.6499 145.877 87.7459C145.937 87.8659 146.093 87.9559 146.345 88.0159C146.609 88.0639 146.861 88.0879 147.101 88.0879C147.341 88.0879 147.587 88.0639 147.839 88.0159C148.091 87.9559 148.253 87.8659 148.325 87.7459C148.265 87.6499 148.223 87.5419 148.199 87.4219C148.175 87.3019 148.163 87.1939 148.163 87.0979C148.163 87.0019 148.181 86.8999 148.217 86.7919C148.265 86.6719 148.343 86.5699 148.451 86.4859C148.559 86.3899 148.715 86.3479 148.919 86.3599C149.135 86.3719 149.303 86.4619 149.423 86.6299C149.555 86.7859 149.621 86.9719 149.621 87.1879C149.621 87.6679 149.375 88.0519 148.883 88.3399C148.391 88.6159 147.797 88.7539 147.101 88.7539Z" fill="white"/>
<path d="M2.98 64V62.812C3.892 62.764 4.516 62.56 4.852 62.2C5.188 61.816 5.368 61.3 5.392 60.652C5.44 59.98 5.464 59.224 5.464 58.384V42.832C5.464 42.352 5.476 41.896 5.5 41.464C5.524 41.008 5.548 40.6 5.572 40.24C5.14 40.264 4.708 40.288 4.276 40.312C3.844 40.336 3.412 40.36 2.98 40.384V38.8H11.08V39.988C10.192 40.012 9.568 40.216 9.208 40.6C8.872 40.984 8.68 41.5 8.632 42.148C8.608 42.796 8.596 43.552 8.596 44.416V59.86C8.596 60.508 8.584 61.06 8.56 61.516C8.56 61.972 8.536 62.356 8.488 62.668L15.22 62.56C16.732 62.536 17.872 62.056 18.64 61.12C19.432 60.184 19.828 58.66 19.828 56.548H21.052L20.836 64H2.98ZM32.1085 64.576C30.4525 64.576 28.9525 64.192 27.6085 63.424C26.2885 62.632 25.2445 61.528 24.4765 60.112C23.7085 58.672 23.3245 56.98 23.3245 55.036C23.3245 53.356 23.6965 51.784 24.4405 50.32C25.2085 48.856 26.2765 47.68 27.6445 46.792C29.0125 45.88 30.5965 45.424 32.3965 45.424C33.4045 45.424 34.3405 45.592 35.2045 45.928C36.0925 46.24 36.8725 46.732 37.5445 47.404C38.2165 48.052 38.7445 48.88 39.1285 49.888C39.5125 50.872 39.7045 52.036 39.7045 53.38L27.0325 53.596C27.0325 55.42 27.2245 57.028 27.6085 58.42C28.0165 59.788 28.6645 60.856 29.5525 61.624C30.4405 62.368 31.5805 62.74 32.9725 62.74C33.7165 62.74 34.4725 62.608 35.2405 62.344C36.0325 62.08 36.7645 61.72 37.4365 61.264C38.1085 60.808 38.6485 60.304 39.0565 59.752L39.9205 60.472C39.2725 61.48 38.4925 62.284 37.5805 62.884C36.6685 63.484 35.7325 63.916 34.7725 64.18C33.8125 64.444 32.9245 64.576 32.1085 64.576ZM27.1405 52.084H36.3205C36.3205 51.22 36.1885 50.392 35.9245 49.6C35.6845 48.784 35.2765 48.124 34.7005 47.62C34.1245 47.092 33.3685 46.828 32.4325 46.828C31.0405 46.828 29.8765 47.248 28.9405 48.088C28.0285 48.904 27.4285 50.236 27.1405 52.084ZM51.5842 73.756C49.4242 73.756 47.6842 73.516 46.3642 73.036C45.0442 72.556 44.0842 71.944 43.4842 71.2C42.8842 70.456 42.5842 69.688 42.5842 68.896C42.5842 68.152 42.7522 67.492 43.0882 66.916C43.4482 66.364 43.8802 65.884 44.3842 65.476C44.9122 65.068 45.4162 64.768 45.8962 64.576C45.1282 64.312 44.5162 63.964 44.0602 63.532C43.6282 63.076 43.4122 62.476 43.4122 61.732C43.4122 60.892 43.7482 60.112 44.4202 59.392C45.0922 58.648 45.9562 58.192 47.0122 58.024C45.9082 57.496 45.0202 56.764 44.3482 55.828C43.7002 54.892 43.3762 53.8 43.3762 52.552C43.3762 51.112 43.7482 49.864 44.4922 48.808C45.2362 47.728 46.1842 46.9 47.3362 46.324C48.5122 45.724 49.7242 45.424 50.9722 45.424C51.7642 45.424 52.5562 45.544 53.3482 45.784C54.1402 46 54.8722 46.324 55.5442 46.756C55.7842 46.084 56.1202 45.484 56.5522 44.956C57.0082 44.428 57.5242 44.02 58.1002 43.732C58.6762 43.42 59.2762 43.264 59.9002 43.264C60.5242 43.264 60.9922 43.432 61.3042 43.768C61.6402 44.08 61.8082 44.512 61.8082 45.064C61.8082 45.232 61.7602 45.436 61.6642 45.676C61.5682 45.916 61.4002 46.12 61.1602 46.288C60.9442 46.456 60.6442 46.54 60.2602 46.54C59.8522 46.54 59.5162 46.42 59.2522 46.18C58.9882 45.94 58.8202 45.64 58.7482 45.28C58.1482 45.376 57.6802 45.664 57.3442 46.144C57.0082 46.6 56.7802 47.104 56.6602 47.656C57.2362 48.184 57.6922 48.82 58.0282 49.564C58.3882 50.308 58.5682 51.1 58.5682 51.94C58.5682 53.284 58.2082 54.484 57.4882 55.54C56.7922 56.596 55.8682 57.424 54.7162 58.024C53.5642 58.6 52.3162 58.888 50.9722 58.888C50.5162 58.888 50.1202 58.864 49.7842 58.816C49.4482 58.744 49.0402 58.708 48.5602 58.708C47.6722 58.708 46.9522 58.924 46.4002 59.356C45.8482 59.788 45.6562 60.304 45.8242 60.904C46.0162 61.48 46.6042 61.852 47.5882 62.02C48.5722 62.164 49.8922 62.272 51.5482 62.344C53.3962 62.416 54.9802 62.632 56.3002 62.992C57.6202 63.352 58.6282 63.904 59.3242 64.648C60.0442 65.416 60.4042 66.448 60.4042 67.744C60.4042 68.704 60.1402 69.556 59.6122 70.3C59.1082 71.068 58.4242 71.704 57.5602 72.208C56.7202 72.712 55.7722 73.096 54.7162 73.36C53.6842 73.624 52.6402 73.756 51.5842 73.756ZM51.5482 72.352C53.6122 72.352 55.2202 71.968 56.3722 71.2C57.5242 70.432 58.1002 69.532 58.1002 68.5C58.1002 67.612 57.8002 66.928 57.2002 66.448C56.6002 65.992 55.7842 65.668 54.7522 65.476C53.7202 65.308 52.5322 65.212 51.1882 65.188C50.5402 65.164 49.9042 65.128 49.2802 65.08C48.6562 65.056 48.0562 64.996 47.4802 64.9C46.8322 65.332 46.3282 65.86 45.9682 66.484C45.6082 67.108 45.4282 67.768 45.4282 68.464C45.4282 69.64 45.9802 70.576 47.0842 71.272C48.2122 71.992 49.7002 72.352 51.5482 72.352ZM51.0802 57.592C51.9682 57.592 52.7002 57.376 53.2762 56.944C53.8762 56.512 54.3202 55.924 54.6082 55.18C54.9202 54.436 55.0762 53.596 55.0762 52.66C55.0762 51.604 54.9202 50.62 54.6082 49.708C54.2962 48.796 53.8282 48.064 53.2042 47.512C52.6042 46.96 51.8362 46.684 50.9002 46.684C49.6042 46.684 48.5962 47.176 47.8762 48.16C47.1802 49.12 46.8322 50.32 46.8322 51.76C46.8322 52.912 47.0002 53.932 47.3362 54.82C47.6722 55.684 48.1522 56.368 48.7762 56.872C49.4242 57.352 50.1922 57.592 51.0802 57.592ZM71.3429 64.576C69.6869 64.576 68.1869 64.192 66.8429 63.424C65.5229 62.632 64.4789 61.528 63.7109 60.112C62.9429 58.672 62.5589 56.98 62.5589 55.036C62.5589 53.356 62.9309 51.784 63.6749 50.32C64.4429 48.856 65.5109 47.68 66.8789 46.792C68.2469 45.88 69.8309 45.424 71.6309 45.424C72.6389 45.424 73.5749 45.592 74.4389 45.928C75.3269 46.24 76.1069 46.732 76.7789 47.404C77.4509 48.052 77.9789 48.88 78.3629 49.888C78.7469 50.872 78.9389 52.036 78.9389 53.38L66.2669 53.596C66.2669 55.42 66.4589 57.028 66.8429 58.42C67.2509 59.788 67.8989 60.856 68.7869 61.624C69.6749 62.368 70.8149 62.74 72.2069 62.74C72.9509 62.74 73.7069 62.608 74.4749 62.344C75.2669 62.08 75.9989 61.72 76.6709 61.264C77.3429 60.808 77.8829 60.304 78.2909 59.752L79.1549 60.472C78.5069 61.48 77.7269 62.284 76.8149 62.884C75.9029 63.484 74.9669 63.916 74.0069 64.18C73.0469 64.444 72.1589 64.576 71.3429 64.576ZM66.3749 52.084H75.5549C75.5549 51.22 75.4229 50.392 75.1589 49.6C74.9189 48.784 74.5109 48.124 73.9349 47.62C73.3589 47.092 72.6029 46.828 71.6669 46.828C70.2749 46.828 69.1109 47.248 68.1749 48.088C67.2629 48.904 66.6629 50.236 66.3749 52.084ZM82.1426 64V62.92C82.8866 62.92 83.4026 62.74 83.6906 62.38C83.9786 61.996 84.1466 61.48 84.1946 60.832C84.2426 60.16 84.2666 59.392 84.2666 58.528L84.3026 50.32C84.3026 49.936 84.3026 49.552 84.3026 49.168C84.3266 48.784 84.3746 48.388 84.4466 47.98C84.0146 48.004 83.5826 48.028 83.1506 48.052C82.7426 48.076 82.3226 48.1 81.8906 48.124V46.612C82.9466 46.612 83.7386 46.564 84.2666 46.468C84.8186 46.372 85.2266 46.252 85.4906 46.108C85.7546 45.964 85.9706 45.808 86.1386 45.64H87.1826C87.2066 45.808 87.2186 46 87.2186 46.216C87.2426 46.432 87.2666 46.672 87.2906 46.936C87.3146 47.2 87.3266 47.5 87.3266 47.836C87.8546 47.38 88.4306 46.972 89.0546 46.612C89.7026 46.252 90.3746 45.964 91.0706 45.748C91.7906 45.532 92.4986 45.424 93.1946 45.424C95.2826 45.424 96.8066 46.084 97.7666 47.404C98.7266 48.7 99.2066 50.728 99.2066 53.488V60.184C99.2066 60.664 99.1946 61.096 99.1706 61.48C99.1706 61.84 99.1346 62.224 99.0626 62.632C99.4466 62.608 99.8186 62.596 100.179 62.596C100.563 62.572 100.947 62.548 101.331 62.524V64H93.9866V62.92C94.7306 62.92 95.2466 62.74 95.5346 62.38C95.8226 61.996 95.9906 61.48 96.0386 60.832C96.0866 60.16 96.1106 59.392 96.1106 58.528V53.488C96.0866 51.424 95.7386 49.864 95.0666 48.808C94.4186 47.752 93.3866 47.236 91.9706 47.26C91.1066 47.284 90.2546 47.512 89.4146 47.944C88.5986 48.376 87.9146 48.928 87.3626 49.6C87.3866 49.792 87.3986 50.008 87.3986 50.248C87.3986 50.488 87.3986 50.74 87.3986 51.004L87.3626 60.184C87.3626 60.664 87.3506 61.096 87.3266 61.48C87.3266 61.84 87.2906 62.224 87.2186 62.632C87.6026 62.608 87.9746 62.596 88.3346 62.596C88.7186 62.572 89.1026 62.548 89.4866 62.524V64H82.1426ZM111.714 64.576C110.25 64.576 108.93 64.216 107.754 63.496C106.578 62.752 105.642 61.696 104.946 60.328C104.274 58.96 103.938 57.352 103.938 55.504C103.938 53.536 104.334 51.796 105.126 50.284C105.918 48.772 107.01 47.584 108.402 46.72C109.818 45.856 111.414 45.424 113.19 45.424C113.982 45.424 114.762 45.532 115.53 45.748C116.322 45.94 116.946 46.168 117.402 46.432V41.5C117.402 41.116 117.402 40.756 117.402 40.42C117.426 40.06 117.462 39.64 117.51 39.16C117.078 39.184 116.646 39.208 116.214 39.232C115.806 39.256 115.386 39.28 114.954 39.304V37.792C116.01 37.792 116.826 37.744 117.402 37.648C117.978 37.552 118.41 37.432 118.698 37.288C119.01 37.144 119.25 36.988 119.418 36.82H120.462V60.184C120.462 60.568 120.45 60.952 120.426 61.336C120.402 61.72 120.366 62.152 120.318 62.632C120.75 62.608 121.17 62.584 121.578 62.56C122.01 62.536 122.442 62.512 122.874 62.488V64H117.726C117.654 63.64 117.594 63.316 117.546 63.028C117.522 62.716 117.498 62.416 117.474 62.128C116.802 62.872 115.974 63.472 114.99 63.928C114.006 64.36 112.914 64.576 111.714 64.576ZM113.01 62.812C113.802 62.812 114.594 62.584 115.386 62.128C116.202 61.672 116.874 61.108 117.402 60.436C117.378 60.148 117.366 59.848 117.366 59.536C117.366 59.2 117.366 58.84 117.366 58.456L117.402 48.088C116.826 47.656 116.19 47.344 115.494 47.152C114.822 46.936 114.126 46.828 113.406 46.828C112.206 46.828 111.162 47.176 110.274 47.872C109.386 48.568 108.714 49.54 108.258 50.788C107.802 52.036 107.598 53.5 107.646 55.18C107.694 56.644 107.922 57.952 108.33 59.104C108.762 60.256 109.362 61.168 110.13 61.84C110.922 62.488 111.882 62.812 113.01 62.812ZM136.469 64C136.397 63.592 136.349 63.232 136.325 62.92C136.301 62.608 136.265 62.284 136.217 61.948C135.401 62.764 134.513 63.412 133.553 63.892C132.617 64.348 131.621 64.576 130.565 64.576C128.741 64.576 127.385 64.168 126.497 63.352C125.609 62.512 125.165 61.492 125.165 60.292C125.165 59.188 125.501 58.24 126.173 57.448C126.869 56.632 127.757 55.972 128.837 55.468C129.941 54.94 131.129 54.556 132.401 54.316C133.697 54.052 134.945 53.932 136.145 53.956V51.724C136.145 50.884 136.073 50.092 135.929 49.348C135.785 48.604 135.473 47.992 134.993 47.512C134.513 47.032 133.745 46.78 132.689 46.756C131.993 46.732 131.273 46.864 130.529 47.152C129.809 47.44 129.281 47.932 128.945 48.628C129.137 48.82 129.257 49.048 129.305 49.312C129.377 49.552 129.413 49.78 129.413 49.996C129.413 50.284 129.293 50.62 129.053 51.004C128.813 51.364 128.393 51.532 127.793 51.508C127.289 51.508 126.905 51.34 126.641 51.004C126.377 50.644 126.245 50.224 126.245 49.744C126.245 48.928 126.545 48.196 127.145 47.548C127.769 46.9 128.621 46.384 129.701 46C130.781 45.616 132.005 45.424 133.373 45.424C135.389 45.424 136.877 45.964 137.837 47.044C138.797 48.1 139.265 49.78 139.241 52.084C139.241 52.972 139.241 53.872 139.241 54.784C139.241 55.672 139.229 56.572 139.205 57.484C139.205 58.372 139.205 59.272 139.205 60.184C139.205 60.568 139.193 60.952 139.169 61.336C139.145 61.72 139.109 62.152 139.061 62.632C139.493 62.608 139.913 62.584 140.321 62.56C140.753 62.536 141.185 62.512 141.617 62.488V64H136.469ZM136.145 55.18C135.329 55.204 134.465 55.312 133.553 55.504C132.665 55.672 131.837 55.936 131.069 56.296C130.325 56.656 129.713 57.136 129.233 57.736C128.777 58.312 128.561 59.02 128.585 59.86C128.633 60.748 128.921 61.42 129.449 61.876C130.001 62.308 130.649 62.524 131.393 62.524C132.377 62.524 133.229 62.344 133.949 61.984C134.693 61.6 135.425 61.072 136.145 60.4C136.121 60.136 136.109 59.848 136.109 59.536C136.109 59.224 136.109 58.9 136.109 58.564C136.109 58.444 136.109 58.06 136.109 57.412C136.133 56.764 136.145 56.02 136.145 55.18ZM144.088 62.92C144.832 62.92 145.348 62.74 145.636 62.38C145.924 61.996 146.092 61.48 146.14 60.832C146.188 60.16 146.212 59.392 146.212 58.528V50.32C146.212 49.936 146.212 49.552 146.212 49.168C146.236 48.784 146.284 48.388 146.356 47.98C145.924 48.004 145.492 48.028 145.06 48.052C144.652 48.052 144.232 48.064 143.8 48.088V46.612H144.916C145.948 46.612 146.656 46.516 147.04 46.324C147.448 46.108 147.784 45.88 148.048 45.64H149.092C149.14 46.024 149.176 46.504 149.2 47.08C149.224 47.632 149.248 48.34 149.272 49.204C149.632 48.604 150.124 48.016 150.748 47.44C151.372 46.864 152.068 46.384 152.836 46C153.628 45.616 154.456 45.424 155.32 45.424C155.992 45.424 156.58 45.604 157.084 45.964C157.588 46.324 157.84 46.9 157.84 47.692C157.84 47.884 157.78 48.124 157.66 48.412C157.54 48.676 157.348 48.916 157.084 49.132C156.82 49.324 156.472 49.42 156.04 49.42C155.512 49.396 155.092 49.192 154.78 48.808C154.468 48.4 154.348 47.932 154.42 47.404C153.82 47.38 153.196 47.536 152.548 47.872C151.924 48.208 151.336 48.676 150.784 49.276C150.232 49.852 149.74 50.536 149.308 51.328L149.344 60.184C149.344 60.664 149.332 61.096 149.308 61.48C149.308 61.84 149.272 62.224 149.2 62.632C149.584 62.608 149.956 62.596 150.316 62.596C150.7 62.572 151.084 62.548 151.468 62.524V64H144.088V62.92ZM163.032 73.756C162.288 73.756 161.652 73.576 161.124 73.216C160.596 72.856 160.332 72.304 160.332 71.56C160.332 71.128 160.476 70.732 160.764 70.372C161.052 70.012 161.424 69.832 161.88 69.832C162.456 69.808 162.84 69.988 163.032 70.372C163.248 70.756 163.356 71.092 163.356 71.38C163.356 71.452 163.356 71.524 163.356 71.596C163.356 71.692 163.344 71.788 163.32 71.884C163.392 71.932 163.524 71.956 163.716 71.956C164.004 71.956 164.316 71.836 164.652 71.596C164.988 71.356 165.288 71.008 165.552 70.552C165.864 70.024 166.224 69.232 166.632 68.176C167.064 67.12 167.544 65.86 168.072 64.396L162.456 52.372C161.832 51.028 161.376 49.96 161.088 49.168C160.824 48.376 160.644 47.788 160.548 47.404L158.82 47.476V46H166.272V47.08H166.128C165.12 47.152 164.568 47.536 164.472 48.232C164.376 48.904 164.652 49.936 165.3 51.328L169.512 60.364C170.064 58.828 170.592 57.316 171.096 55.828C171.6 54.316 172.104 52.816 172.608 51.328C172.8 50.8 172.992 50.26 173.184 49.708C173.4 49.132 173.604 48.628 173.796 48.196C174.012 47.74 174.204 47.452 174.372 47.332L171.888 47.476V46H177.54V47.08C176.652 47.416 175.98 47.98 175.524 48.772C175.092 49.54 174.648 50.536 174.192 51.76L169.692 64.324C168.972 66.34 168.312 68.044 167.712 69.436C167.112 70.852 166.452 71.92 165.732 72.64C165.012 73.384 164.112 73.756 163.032 73.756ZM186.936 64V62.812C187.656 62.812 188.208 62.62 188.592 62.236C188.976 61.852 189.288 61.324 189.528 60.652C189.792 59.98 190.092 59.2 190.428 58.312L197.844 38.116H198.708L206.736 58.6C206.928 59.104 207.144 59.752 207.384 60.544C207.624 61.336 207.72 62.008 207.672 62.56C208.08 62.536 208.488 62.512 208.896 62.488C209.304 62.464 209.712 62.44 210.12 62.416V64H201.876V62.812C202.788 62.788 203.388 62.584 203.676 62.2C203.964 61.816 204.072 61.36 204 60.832C203.928 60.304 203.808 59.824 203.64 59.392L202.38 56.008L193.02 56.224L191.76 60.076C191.592 60.652 191.436 61.108 191.292 61.444C191.172 61.78 191.028 62.152 190.86 62.56C191.34 62.536 191.808 62.512 192.264 62.488C192.744 62.464 193.212 62.44 193.668 62.416V64H186.936ZM193.56 54.676H201.876L199.32 47.8C199.056 47.056 198.78 46.324 198.492 45.604C198.228 44.86 197.964 44.116 197.7 43.372H197.628C197.388 44.044 197.136 44.716 196.872 45.388C196.632 46.06 196.38 46.744 196.116 47.44L193.56 54.676ZM218.868 64.576C217.572 64.576 216.48 64.336 215.592 63.856C214.728 63.376 214.068 62.56 213.612 61.408C213.18 60.256 212.964 58.696 212.964 56.728V50.32C212.964 49.936 212.964 49.552 212.964 49.168C212.988 48.784 213.036 48.388 213.108 47.98C212.7 48.004 212.28 48.028 211.848 48.052C211.44 48.052 211.032 48.064 210.624 48.088V46.612H211.74C212.772 46.612 213.516 46.516 213.972 46.324C214.452 46.108 214.824 45.88 215.088 45.64H216.132V56.62C216.132 58.684 216.42 60.232 216.996 61.264C217.596 62.272 218.604 62.764 220.02 62.74C220.932 62.716 221.796 62.44 222.612 61.912C223.452 61.36 224.124 60.712 224.628 59.968V50.716C224.628 50.14 224.64 49.648 224.664 49.24C224.688 48.808 224.736 48.388 224.808 47.98C224.376 48.004 223.944 48.028 223.512 48.052C223.08 48.052 222.648 48.064 222.216 48.088V46.612H223.332C224.364 46.612 225.108 46.516 225.564 46.324C226.044 46.108 226.416 45.88 226.68 45.64H227.724L227.688 59.248C227.688 59.632 227.676 60.172 227.652 60.868C227.628 61.564 227.592 62.152 227.544 62.632C227.976 62.608 228.408 62.584 228.84 62.56C229.272 62.536 229.704 62.512 230.136 62.488V64H224.988C224.916 63.592 224.856 63.208 224.808 62.848C224.784 62.488 224.76 62.152 224.736 61.84C223.992 62.584 223.092 63.232 222.036 63.784C220.98 64.312 219.924 64.576 218.868 64.576ZM239.52 64.576C238.968 64.576 238.404 64.492 237.828 64.324C237.252 64.18 236.712 63.88 236.208 63.424C235.728 62.968 235.344 62.308 235.056 61.444C234.768 60.556 234.624 59.392 234.624 57.952L234.696 47.512L231.924 47.548V46C232.548 45.976 233.184 45.748 233.832 45.316C234.48 44.86 235.056 44.248 235.56 43.48C236.088 42.712 236.448 41.872 236.64 40.96H237.864V46H243.912V47.404L237.864 47.476L237.792 57.484C237.792 58.564 237.876 59.488 238.044 60.256C238.236 61 238.536 61.564 238.944 61.948C239.352 62.332 239.88 62.524 240.528 62.524C241.2 62.524 241.824 62.332 242.4 61.948C243 61.564 243.528 61.036 243.984 60.364L244.956 61.156C244.428 61.948 243.9 62.572 243.372 63.028C242.868 63.484 242.376 63.82 241.896 64.036C241.416 64.276 240.972 64.42 240.564 64.468C240.156 64.54 239.808 64.576 239.52 64.576ZM255.602 64.576C253.922 64.576 252.398 64.192 251.03 63.424C249.662 62.632 248.57 61.552 247.754 60.184C246.962 58.792 246.566 57.208 246.566 55.432C246.566 53.536 246.962 51.832 247.754 50.32C248.546 48.808 249.626 47.62 250.994 46.756C252.362 45.868 253.898 45.424 255.602 45.424C257.282 45.424 258.806 45.832 260.174 46.648C261.542 47.44 262.634 48.52 263.45 49.888C264.266 51.256 264.674 52.816 264.674 54.568C264.674 56.416 264.266 58.108 263.45 59.644C262.658 61.156 261.578 62.356 260.21 63.244C258.842 64.132 257.306 64.576 255.602 64.576ZM255.89 63.136C257.162 63.136 258.17 62.776 258.914 62.056C259.658 61.336 260.186 60.4 260.498 59.248C260.834 58.096 261.002 56.884 261.002 55.612C261.002 54.532 260.894 53.476 260.678 52.444C260.486 51.388 260.174 50.44 259.742 49.6C259.31 48.736 258.746 48.052 258.05 47.548C257.378 47.044 256.562 46.792 255.602 46.792C254.354 46.792 253.334 47.152 252.542 47.872C251.75 48.592 251.162 49.528 250.778 50.68C250.418 51.832 250.238 53.068 250.238 54.388C250.238 55.876 250.442 57.292 250.85 58.636C251.258 59.956 251.882 61.036 252.722 61.876C253.562 62.716 254.618 63.136 255.89 63.136Z" fill="white"/>
</svg>
